<mxfile host="app.diagrams.net" modified="2024-04-16T18:06:01.705Z" agent="Mozilla/5.0 (Windows NT 10.0; Win64; x64) AppleWebKit/537.36 (KHTML, like Gecko) Chrome/123.0.0.0 Safari/537.36 Edg/123.0.0.0" version="24.2.5" etag="hqc375DaM36vd2xv-P9M" type="github">
  <diagram name="第 1 页" id="--xcg7f45cUxYBkF43f6">
    <mxGraphModel>
      <root>
        <mxCell id="0" />
        <mxCell id="1" parent="0" />
      </root>
    </mxGraphModel>
  </diagram>
</mxfile>
